<?xml version="1.0" encoding="UTF-8" standalone="no"?>
<!-- Created with Inkscape (http://www.inkscape.org/) -->

<svg
   xmlns:dc="http://purl.org/dc/elements/1.1/"
   xmlns:cc="http://creativecommons.org/ns#"
   xmlns:rdf="http://www.w3.org/1999/02/22-rdf-syntax-ns#"
   xmlns:svg="http://www.w3.org/2000/svg"
   xmlns="http://www.w3.org/2000/svg"
   xmlns:sodipodi="http://sodipodi.sourceforge.net/DTD/sodipodi-0.dtd"
   xmlns:inkscape="http://www.inkscape.org/namespaces/inkscape"
   width="210mm"
   height="297mm"
   viewBox="0 0 210 297"
   version="1.1"
   id="svg8"
   inkscape:version="0.92.3 (2405546, 2018-03-11)"
   sodipodi:docname="CMR1.svg">
  <defs
     id="defs2" />
  <sodipodi:namedview
     id="base"
     pagecolor="#ffffff"
     bordercolor="#666666"
     borderopacity="1.0"
     inkscape:pageopacity="0.0"
     inkscape:pageshadow="2"
     inkscape:zoom="0.35"
     inkscape:cx="400"
     inkscape:cy="560"
     inkscape:document-units="mm"
     inkscape:current-layer="layer1"
     showgrid="false"
     inkscape:snap-text-baseline="true"
     inkscape:window-width="1600"
     inkscape:window-height="837"
     inkscape:window-x="-8"
     inkscape:window-y="-8"
     inkscape:window-maximized="1" />
  <metadata
     id="metadata5">
    <rdf:RDF>
      <cc:Work
         rdf:about="">
        <dc:format>image/svg+xml</dc:format>
        <dc:type
           rdf:resource="http://purl.org/dc/dcmitype/StillImage" />
        <dc:title></dc:title>
      </cc:Work>
    </rdf:RDF>
  </metadata>
  <g
     inkscape:label="Capa 1"
     inkscape:groupmode="layer"
     id="layer1">
    <text
       xml:space="preserve"
       style="font-style:normal;font-weight:normal;font-size:31.08342552px;line-height:1.25;font-family:sans-serif;letter-spacing:0px;word-spacing:0px;fill:#000080;fill-opacity:1;stroke:none;stroke-width:0.16189283"
       x="35.569252"
       y="32.824127"
       id="text3715"
       transform="scale(1.0544546,0.94835757)"><tspan
         sodipodi:role="line"
         id="tspan3713"
         x="35.569252"
         y="32.824127"
         style="font-size:31.08342552px;line-height:38.85427856px;letter-spacing:0.812702px;word-spacing:0.80946416px;fill:#000080;stroke-width:0.16189283"
         dy="3.0593925">CMR</tspan></text>
    <path
       style="fill:#000080;stroke-width:0.16880208"
       id="path3757"
       d="m -2.4018935,44.65675 c 0.828985,-1.107123 1.52034002,-2.241904 2.37480002,-3.343542 0.653719,-0.805626 1.30129798,-1.617039 2.11240698,-2.379711 0.716309,-0.620326 1.835713,-1.02276 2.863747,-1.470338 0.909116,-0.374132 1.897429,-0.685021 2.768374,-1.086186 0.769884,-0.422203 1.626576,-0.778035 2.4972495,-1.13236 3.930103,-1.41678 -11.5985295,4.174447 9.234242,-2.95545 2.550239,-0.872803 -5.206124,1.649899 -7.821146,2.463434 -0.159342,0.04957 0.293768,-0.120741 0.452377,-0.171004 8.777751,-2.782021 5.542414,-2.260522 9.334716,-2.840642 1.657216,-0.335294 3.423475,-0.52754 5.171646,-0.677302 1.939467,-0.162115 3.903955,-0.159647 5.860473,-0.171169 1.708695,-0.07984 3.375987,0.115808 5.059168,0.236529 1.247032,0.0053 2.407051,0.246594 3.621826,0.363699 1.162407,0.250124 2.386347,0.358489 3.622958,0.419906 1.316141,0.169934 2.632569,0.304441 3.937684,0.496239 1.261728,0.180884 2.564487,0.224589 3.861915,0.250758 1.460631,0.06758 2.887772,-0.126858 4.328972,-0.228074 1.522319,-0.302393 3.12202,-0.455167 4.666464,-0.714516 1.774253,-0.249191 3.412567,-0.707637 4.986993,-1.20945 -25.098164,7.862792 21.734088,-6.964862 -4.614896,1.331466 0.849217,-0.284855 1.665193,-0.582599 2.401136,-0.950693 0,0 8.971128,-1.994915 8.971128,-1.994915 v 0 c -0.76345,0.354445 -1.40437,0.787145 -2.34858,1.01413 -19.296104,6.186112 -4.66391,1.489666 -1.043265,0.349053 0.198652,-0.06258 -0.387072,0.13473 -0.572329,0.208575 -1.117861,0.445567 -0.05536,0.08732 -1.31462,0.488685 -2.993977,0.954256 -5.989098,1.907431 -8.983646,2.861148 -1.636285,0.463477 -3.314617,0.881724 -5.117931,1.113325 -1.589242,0.225 -3.160509,0.498177 -4.773223,0.664462 -1.475586,0.112443 -2.951253,0.238543 -4.446194,0.15355 -1.341116,-0.04933 -2.677339,-0.136423 -3.973289,-0.340717 -1.272414,-0.179329 -2.570004,-0.307304 -3.862927,-0.43263 -1.25214,-0.09492 -2.464,-0.26583 -3.679725,-0.451793 -1.182427,-0.144319 -2.350793,-0.307243 -3.567369,-0.345952 -1.637794,-0.13106 -3.271043,-0.251361 -4.932964,-0.187294 -1.93021,0.01872 -3.865992,0.05326 -5.771624,0.237827 -1.742783,0.1803 -3.476129,0.411124 -5.118626,0.783635 -3.175216,0.862169 -0.758045,0.213019 7.331099,-2.351408 0.156968,-0.04976 -0.310344,0.102856 -0.466658,0.153224 -2.909957,0.937797 -5.892538,1.811148 -8.732139,2.811288 -2.3717055,0.83534 10.87845,-3.617122 7.336364,-2.30763 -0.93658,0.296102 -1.770879,0.651745 -2.569408,1.04836 -0.804984,0.465059 -1.737115,0.809207 -2.72274,1.150078 -0.699875,0.252313 -1.338469,0.548237 -2.007967,0.823302 -0.180644,0.07421 -0.397033,0.122456 -0.563746,0.205849 -0.16886,0.08447 -0.287661,0.194646 -0.431489,0.291969 -1.0620695,0.636236 -1.4899785,1.539193 -2.2321985,2.290207 -0.929001,1.073014 -1.667829,2.190794 -2.323468,3.32119 0,0 -8.803571,2.210888 -8.803571,2.210888 z"
       inkscape:connector-curvature="0" />
    <path
       style="fill:#000080;stroke-width:0.16734698"
       id="path3759"
       d="m 70.010077,13.342496 c 0.763639,-0.87902 1.437943,-1.785451 2.240453,-2.651865 0.60862,-0.562721 1.46746,-0.9957213 2.25617,-1.4602963 3.49429,-1.81354 7.60766,-3.183791 11.81268,-4.291666 1.51748,-0.329812 3.13372,-0.380453 4.70437,-0.583669 2.05943,-0.357266 4.1352,-0.67084 6.25731,-0.849874 1.36445,-0.101997 2.74042,-0.107109 4.1129,-0.109141 1.26332,-0.03021 2.52887,0.102024 3.73029,0.336698 1.09344,0.200425 2.10531,0.536318 3.11452,0.855934 0.79014,0.327628 1.45334,0.74758 2.26304,1.058583 0.90098,0.392113 1.76765,0.829387 2.53406,1.317857 0.67258,0.374855 1.29058,0.778271 1.97802,1.144552 0.89068,0.299304 1.75428,0.635328 2.6664,0.914334 0.93107,0.431542 2.0255,0.685504 3.14195,0.876479 1.40281,0.1558923 2.78661,0.3599963 4.20036,0.4815663 1.30654,0.127515 2.57283,0.120771 3.86535,-0.02361 1.16561,-0.186562 2.21951,-0.5326763 3.35387,-0.7644353 4.39237,-1.578813 -9.63223,3.5861823 -6.18752,2.1371163 0,0 8.48644,-2.0232683 8.48644,-2.0232683 v 0 c -3.05957,1.1958993 -6.10353,2.4565243 -9.46245,3.3043213 -1.11749,0.284744 -2.26146,0.541572 -3.46118,0.664501 -1.34111,0.08912 -2.68219,0.01052 -4.01216,-0.116366 -1.43621,-0.150878 -2.87123,-0.324092 -4.28245,-0.544821 -1.14889,-0.237362 -2.25141,-0.529006 -3.2507,-0.954169 -0.9493,-0.317647 -1.9169,-0.629663 -2.79058,-1.019882 -0.70283,-0.374102 -1.33127,-0.793723 -2.0139,-1.1810193 -0.74789,-0.450508 -1.54789,-0.876562 -2.43357,-1.223841 -0.75174,-0.326151 -1.42284,-0.71514 -2.21332,-1.007813 -0.94986,-0.310889 -1.93881,-0.595827 -2.98455,-0.762645 -1.18335,-0.160166 -2.37189,-0.260172 -3.58807,-0.212057 -1.33884,0.01031 -2.68061,0.03378 -4.00636,0.158996 -2.0958,0.209587 -4.14239,0.545731 -6.20054,0.860832 -1.55581,0.190566 -3.17171,0.261856 -4.61306,0.70105 -2.83146,0.85582 -6.86646,2.3704333 5.60959,-2.055229 0.0367,-0.01299 -0.53108,0.150866 -1.37988,0.550716 -0.18424,0.08679 -0.35718,0.182158 -0.53576,0.273237 -0.83784,0.407754 -1.53051,0.906631 -2.36166,1.320119 -0.94455,0.79246 -1.477,1.7218123 -2.28544,2.5641423 0,0 -8.264623,2.314637 -8.264623,2.314636 z"
       inkscape:connector-curvature="0" />
  </g>
</svg>
